<svg width="100" height="100" viewBox="0 0 100 100" fill="none" xmlns="http://www.w3.org/2000/svg">
<path d="M50 0C22.3828 0 0 22.3828 0 50C0 77.6172 22.3828 100 50 100C77.6172 100 100 77.6172 100 50C100 22.3828 77.6172 0 50 0ZM79.1602 54.1602C79.1602 56.4648 77.3047 58.3203 75 58.3203H58.3398V75C58.3398 77.3047 56.4844 79.1602 54.1797 79.1602H45.8398C43.5352 79.1602 41.6797 77.2852 41.6797 75V58.3398H25C22.6953 58.3398 20.8398 56.4648 20.8398 54.1797V45.8398C20.8398 43.5352 22.6953 41.6797 25 41.6797H41.6602V25C41.6602 22.6953 43.5156 20.8398 45.8203 20.8398H54.1602C56.4648 20.8398 58.3203 22.7148 58.3203 25V41.6602H75C77.3047 41.6602 79.1602 43.5352 79.1602 45.8203V54.1602Z" fill="#AE0000"/>
</svg>
